<svg width="25" height="25" viewBox="0 0 25 25" fill="none" xmlns="http://www.w3.org/2000/svg">
<circle cx="12.5" cy="12.5" r="12.5" fill="white"/>
<path d="M12.5515 6.05324C14.7777 6.05324 16.5825 5.01932 16.5825 3.74391C16.5825 2.46849 14.7777 1.43457 12.5515 1.43457C10.3252 1.43457 8.52042 2.46849 8.52042 3.74391C8.52042 5.01932 10.3252 6.05324 12.5515 6.05324Z" fill="#E6007A"/>
<path d="M12.5515 23.5657C14.7777 23.5657 16.5825 22.5318 16.5825 21.2564C16.5825 19.981 14.7777 18.947 12.5515 18.947C10.3252 18.947 8.52042 19.981 8.52042 21.2564C8.52042 22.5318 10.3252 23.5657 12.5515 23.5657Z" fill="#E6007A"/>
<path d="M18.0997 20.3782C16.998 19.7405 17.0073 17.6565 18.1204 15.7236C19.2335 13.7906 21.029 12.7407 22.1308 13.3784C23.2325 14.0161 23.2232 16.1 22.1101 18.0329C20.9969 19.9659 19.2014 21.0159 18.0997 20.3782Z" fill="#E6007A"/>
<path d="M2.99279 6.96736C1.87968 8.90031 1.8704 10.9842 2.97212 11.6219C4.07384 12.2596 5.86934 11.2096 6.98249 9.27669C8.09565 7.34374 8.10488 5.25983 7.00316 4.62212C5.90144 3.98442 4.10594 5.03441 2.99279 6.96736Z" fill="#E6007A"/>
<path d="M22.1308 11.6219C21.029 12.2596 19.2335 11.2096 18.1204 9.27669C17.0073 7.34374 16.998 5.25983 18.0997 4.62212C19.2014 3.98442 20.9969 5.03441 22.1101 6.96736C23.2232 8.90031 23.2325 10.9842 22.1308 11.6219Z" fill="#E6007A"/>
<path d="M2.99279 18.0329C4.10594 19.9659 5.90144 21.0159 7.00316 20.3782C8.10488 19.7405 8.09565 17.6565 6.98249 15.7236C5.86934 13.7906 4.07384 12.7407 2.97212 13.3784C1.8704 14.0161 1.87968 16.1 2.99279 18.0329Z" fill="#E6007A"/>
</svg>
