<svg width="209" height="209" viewBox="0 0 209 209" fill="none" xmlns="http://www.w3.org/2000/svg">
<circle cx="104.5" cy="104.5" r="104.5" fill="black"/>
<path d="M135.558 84.0802C135.588 84.0449 135.617 84.0095 135.647 83.9741C148.196 69.043 146.264 46.7664 131.333 34.2179C116.402 21.6694 94.1255 23.6008 81.577 38.5319C81.577 38.532 81.577 38.5319 81.577 38.5319L135.647 83.9741L135.558 84.0802Z" fill="white"/>
<path d="M129.583 171.342C129.626 171.326 129.669 171.311 129.711 171.295C148.029 164.598 157.45 144.319 150.752 126.001C144.055 107.683 123.776 98.2625 105.458 104.96C105.458 104.96 105.458 104.96 105.458 104.96L129.711 171.295L129.583 171.342Z" fill="white"/>
<path d="M105.614 104.945C105.571 104.961 105.528 104.976 105.485 104.992C87.1327 111.593 66.9033 102.067 60.302 83.7139C53.7006 65.3612 63.2269 45.1318 81.5797 38.5304C81.5797 38.5304 81.5797 38.5305 81.5797 38.5304L105.485 104.992L105.614 104.945Z" fill="white"/>
<path d="M129.839 171.174C129.81 171.209 129.781 171.244 129.751 171.279C117.231 186.234 94.9577 188.206 80.0033 175.686C65.0489 163.165 63.076 140.892 75.5967 125.938C75.5967 125.938 75.5967 125.938 75.5967 125.938L129.751 171.279L129.839 171.174Z" fill="white"/>
</svg>
