<svg width="480" height="188" viewBox="0 0 480 188" fill="none" xmlns="http://www.w3.org/2000/svg">
<path d="M88.3292 183.423V183.923H88.8292H121.51H122.01V183.423V147.643H151.127H151.627V147.143V118.016V117.516H151.127H122.01V4.57693V4.07693H121.51H62.7868H62.5012L62.3561 4.32291L0.569334 109.076L0.5 109.193V109.33V147.143V147.643H1H88.3292V183.423ZM416.203 183.423V183.923H416.703H449.383H449.883V183.423V147.643H479H479.5V147.143V118.016V117.516H479H449.883V4.57693V4.07693H449.383H390.66H390.375L390.23 4.32291L328.443 109.076L328.373 109.193V109.33V147.143V147.643H328.873H416.203V183.423ZM32.6487 117.516V114.065L84.5192 26.0275H88.3292V117.516H32.6487ZM239.401 187.5C260.679 187.5 278.307 181.727 290.619 169.923C302.934 158.116 309.858 140.342 309.858 116.484V71.5165C309.858 48.4209 302.931 30.6501 290.622 18.6543C278.314 6.66068 260.687 0.5 239.401 0.5C218.114 0.5 200.487 6.66068 188.18 18.6543C175.87 30.6501 168.944 48.4209 168.944 71.5165V116.484C168.944 140.342 175.868 158.116 188.183 169.923C200.494 181.727 218.123 187.5 239.401 187.5ZM239.401 157.374C227.107 157.374 217.942 154.015 211.843 147.41C205.737 140.799 202.624 130.85 202.624 117.506V69.9835C202.624 57.4243 206.046 47.5965 212.319 40.9118C218.587 34.2316 227.762 30.6264 239.401 30.6264C250.663 30.6264 259.839 33.98 266.201 40.5347C272.565 47.091 276.177 56.9156 276.177 69.9835V117.506C276.177 130.342 273.255 140.294 267.24 147.034C261.235 153.763 252.071 157.374 239.401 157.374ZM360.522 117.516V114.065L412.393 26.0275H416.203V117.516H360.522Z" fill="#262626" stroke="#E6007A"/>
</svg>
