<svg width="1440" height="900" viewBox="0 0 1440 900" fill="none" xmlns="http://www.w3.org/2000/svg">
<rect width="1917.05" height="1165" transform="translate(-239.053)" fill="#262626"/>
<path fill-rule="evenodd" clip-rule="evenodd" d="M479.226 0H479.227H481.342H481.343L481.342 1165H479.226V0ZM321.676 0V1165H319.559V0H321.676ZM162.009 0V1165H159.892V0H162.009ZM2.34225 0V1165H0.22583V0H2.34225ZM961.059 1165H961.343V0H961.059H959.227H958.943V1165H959.227H961.059ZM799.227 1165H801.343V0H799.227V1165ZM639.227 1165H641.343V0H639.227V1165ZM1438.94 1165H1441.06V0H1438.94V1165ZM1278.94 1165H1281.06V0H1278.94V1165ZM1118.94 1165H1121.06V0H1118.94V1165Z" fill="#373737"/>
<path fill-rule="evenodd" clip-rule="evenodd" d="M1678 601.486H719.687H719.26H-239.053L-239.053 601.388V599.272H719.26H719.687H1678V599.37H1678V601.486ZM1678 441.343H719.687H719.26H-239.053V439.227H719.26L719.687 439.227H1678V441.343ZM1678 281.201H719.687H719.26H-239.053V279.084H719.26H719.687H1678V281.201ZM1678 121.058H719.687H719.26H-239.053V118.941H719.26H719.687H1678V121.058ZM-239.053 1081.82H719.26H719.687H1678V1079.7H719.687H719.26H-239.053V1081.82ZM-239.053 921.674H719.26H719.687H1678V919.557H719.687H719.26H-239.053V921.674ZM-239.053 761.531H719.26H719.687H1678V759.415H719.687H719.26H-239.053V761.531Z" fill="#373737"/>
<circle r="159.904" transform="matrix(-1 0 0 1 1119.91 759.904)" fill="url(#paint0_linear_7333_32586)"/>
<path d="M1279.88 759.83C1279.88 803.458 1315.47 838.83 1359.38 838.83C1403.29 838.83 1438.88 803.458 1438.88 759.83C1438.88 716.203 1403.29 680.83 1359.38 680.83C1315.47 680.83 1279.88 716.203 1279.88 759.83Z" stroke="#E6007A"/>
<circle r="79.5" transform="matrix(-1 0 0 1 80.5 360.5)" fill="url(#paint1_linear_7333_32586)"/>
<circle r="79" transform="matrix(-1 0 0 1 240.5 680.5)" stroke="#E6007A"/>
<circle r="159" transform="matrix(-1 0 0 1 1440.5 279.5)" stroke="#E6007A"/>
<defs>
<linearGradient id="paint0_linear_7333_32586" x1="159.904" y1="0" x2="159.904" y2="319.809" gradientUnits="userSpaceOnUse">
<stop stop-color="#929292"/>
<stop offset="1" stop-color="#929292" stop-opacity="0"/>
</linearGradient>
<linearGradient id="paint1_linear_7333_32586" x1="79.5" y1="0" x2="79.5" y2="159" gradientUnits="userSpaceOnUse">
<stop stop-color="#929292"/>
<stop offset="1" stop-color="#929292" stop-opacity="0"/>
</linearGradient>
</defs>
</svg>
